<svg width="452" height="357" viewBox="0 0 452 357" fill="none" xmlns="http://www.w3.org/2000/svg">
<path d="M347.683 206.317C354.29 182.636 359.575 158.587 363.539 134.317C367.577 125.124 372.128 116.151 377.12 107.473C383.286 96.8089 390.554 86.9539 397.307 76.6576C403.327 67.4644 408.759 57.3152 409.42 46.2099C409.934 37.5316 408.025 28.1914 402.226 21.4253C395.839 13.9237 386.002 10.9819 376.386 11.8644C365.962 12.7469 356.492 18.2628 348.417 24.6612C339.681 31.648 331.533 39.5909 323.825 47.6073C308.923 63.1253 295.709 80.2613 284.331 98.5004C275.962 95.2645 267.887 91.3666 259.812 87.5422C248.067 81.9528 236.175 77.0253 223.548 73.7158C201.012 67.8322 175.612 65.5523 153.516 74.2306C133.549 82.0999 116.738 100.045 116.445 122.403C116.298 131.228 118.867 138.95 123.125 145.716C114.022 150.717 106.314 157.851 101.543 167.265C96.6976 176.826 95.7433 188.52 99.7074 198.522C101.176 202.199 103.231 205.508 105.727 208.45C98.3126 215.216 91.6324 223.821 88.5492 233.456C85.6128 242.575 87.3012 251.768 92.1462 259.932C93.541 262.212 95.156 264.344 96.9178 266.404C88.7694 273.538 86.1267 285.231 88.5492 295.675C91.3387 307.957 100.295 317.518 109.911 325.093C117.326 330.903 125.254 336.124 133.476 340.758C137.586 343.332 141.918 345.759 146.249 347.965C150.873 350.245 155.718 352.378 160.637 353.849C164.014 354.878 167.464 355.761 170.914 356.202C173.263 356.496 175.612 356.643 177.961 356.57C179.136 356.57 180.31 356.496 181.412 356.349C184.642 356.055 187.872 355.173 191.028 354.143C193.23 353.408 195.359 352.451 197.415 351.275C199.03 350.392 200.645 349.436 202.113 348.406C211.362 350.613 220.759 351.863 230.302 351.716C250.636 351.348 269.723 343.111 285.139 329.947C302.096 315.532 314.062 296.337 323.164 276.185C333.368 253.828 341.003 230.072 347.683 206.317Z" fill="#EF9E81"/>
<path d="M98.0768 268.772C112.13 277.832 126.698 286.155 141.634 293.594C148.991 297.277 156.496 300.812 164.148 303.906C171.726 306.999 179.525 309.651 187.619 311.271C195.124 312.745 203.29 313.481 210.869 312.008C215.578 311.124 220.654 309.946 224.701 307.294C227.129 305.747 229.189 303.759 231.102 301.623C232.794 299.707 234.56 297.645 235.811 295.435C237.798 291.826 238.901 287.775 239.343 283.724C240.593 273.486 237.283 262.879 229.042 256.398C227.865 255.44 226.54 254.556 225.216 253.82C224.186 253.23 223.303 254.777 224.26 255.44C229.042 258.239 232.868 262.216 235.222 267.299C237.209 271.571 237.945 276.432 237.724 281.146C237.503 285.197 236.694 289.248 235.002 292.931C234.266 294.552 233.309 296.025 232.206 297.424C230.219 300.002 228.012 302.433 225.51 304.495C221.979 307.368 217.638 308.62 213.297 309.651C206.086 311.419 198.508 311.198 191.224 310.093C175.479 307.662 160.69 300.886 146.49 293.962C131.922 286.891 117.722 279.01 104.036 270.392C102.344 269.361 100.726 268.256 99.0333 267.225C98.0033 266.562 97.0468 268.183 98.0768 268.772Z" fill="#C4674E"/>
<path d="M111.762 211.173C128.169 218.906 144.724 226.419 161.279 233.638C177.171 240.635 193.211 247.632 209.986 252.273C218.079 254.556 226.761 256.692 235.222 255.219C241.476 254.114 247.215 250.947 251.63 246.454C256.118 241.887 259.355 235.995 260.68 229.66C261.489 225.977 261.195 222.147 260.533 218.464C258.546 207.784 252.071 198.135 242.654 192.758C241.256 191.948 239.784 191.285 238.239 190.622C237.135 190.18 236.694 191.948 237.724 192.39C247.951 196.662 255.309 205.501 258.105 216.107C259.061 219.79 259.576 223.694 259.135 227.451C258.546 232.901 255.824 238.425 252.439 242.697C248.54 247.485 243.316 251.094 237.356 252.788C229.484 254.924 221.243 253.304 213.518 251.241C197.257 247.043 181.733 240.488 166.355 233.785C150.316 226.788 134.423 219.643 118.531 212.277C116.544 211.32 114.558 210.436 112.571 209.478C111.615 209.11 110.732 210.731 111.762 211.173Z" fill="#C4674E"/>
<path d="M129.052 148.786C147.667 156.52 165.693 165.579 184.014 173.755C193.063 177.806 202.26 181.636 211.605 185.025C221.096 188.486 230.955 191.875 241.035 192.979C249.79 194.011 259.135 192.832 266.566 187.676C269.95 185.319 272.82 182.226 274.659 178.543C276.572 174.786 277.455 170.514 277.381 166.316C277.381 157.624 273.482 149.596 267.743 143.188C261.489 136.191 253.249 131.329 244.714 127.573C237.43 124.332 229.925 121.68 222.494 118.808C215.21 116.009 208.073 113.062 201.01 109.822C198.729 108.79 196.448 107.759 194.167 106.654C193.137 106.139 192.181 107.759 193.211 108.275C200.862 111.81 208.588 115.198 216.387 118.366C222.935 120.944 229.484 123.448 236.032 125.952C244.787 129.34 253.543 133.244 260.9 139.21C267.375 144.514 272.893 151.585 274.806 159.834C276.719 167.936 275.027 177.07 269.067 183.11C263.108 189.149 254.352 191.506 246.038 191.359C236.032 191.212 226.173 187.971 216.828 184.804C207.484 181.636 198.361 177.954 189.385 174.05C171.432 166.242 153.921 157.403 135.895 149.67C133.761 148.712 131.554 147.828 129.42 146.944C128.464 146.502 127.949 148.344 129.052 148.786Z" fill="#C4674E"/>
<path d="M203.658 344.785C206.381 339.187 207.484 332.779 206.749 326.592C206.381 323.572 205.645 320.552 204.468 317.679C203.438 315.175 202.113 311.861 199.317 310.977C198.214 310.608 197.699 312.376 198.802 312.744C200.053 313.113 200.789 314.365 201.378 315.47C202.04 316.722 202.628 317.974 203.143 319.3C204.1 321.951 204.762 324.677 204.983 327.476C205.498 333.074 204.468 338.745 202.04 343.827C201.525 344.932 203.143 345.89 203.658 344.785Z" fill="#C4674E"/>
<path d="M233.677 178.837C234.045 167.494 238.975 156.52 247.142 148.712C248.025 147.902 246.7 146.576 245.817 147.386C237.282 155.562 232.206 166.979 231.764 178.764C231.838 180.016 233.677 180.016 233.677 178.837Z" fill="#C4674E"/>
<path d="M244.272 151.216C248.393 152.395 252.513 153.794 256.265 155.93C259.282 157.625 262.078 160.129 262.666 163.738C263.255 167.274 261.636 170.883 259.061 173.24C256.339 175.818 252.513 176.996 248.834 177.291C243.757 177.659 238.754 176.26 233.898 174.86C232.794 174.565 232.279 176.333 233.383 176.628C241.918 179.132 252.145 181.268 259.723 175.081C262.666 172.65 264.653 168.894 264.579 164.99C264.579 160.939 262.225 157.698 259.061 155.489C257.148 154.163 255.014 153.132 252.881 152.248C250.232 151.143 247.51 150.185 244.714 149.375C243.61 149.08 243.169 150.848 244.272 151.216Z" fill="#C4674E"/>
<path d="M211.237 237.321C211.605 225.167 216.902 213.456 225.658 205.059C226.541 204.249 225.216 202.923 224.333 203.733C215.21 212.425 209.765 224.652 209.324 237.321C209.324 238.499 211.163 238.499 211.237 237.321Z" fill="#C4674E"/>
<path d="M222.641 207.711C226.982 208.963 231.396 210.509 235.37 212.719C238.681 214.561 241.771 217.286 242.359 221.263C242.874 225.02 241.182 228.85 238.46 231.354C235.443 234.153 231.323 235.405 227.35 235.7C221.905 236.068 216.608 234.595 211.457 233.122C210.354 232.827 209.839 234.595 210.942 234.89C219.919 237.541 230.808 239.825 238.828 233.417C242.065 230.839 244.199 226.787 244.199 222.589C244.199 218.243 241.624 214.782 238.239 212.351C236.179 210.878 233.898 209.847 231.617 208.889C228.821 207.711 225.952 206.679 223.082 205.869C221.979 205.574 221.464 207.342 222.641 207.711Z" fill="#C4674E"/>
<path d="M191.371 296.614C191.739 284.461 197.037 272.749 205.792 264.352C206.675 263.542 205.351 262.216 204.468 263.027C195.344 271.718 189.9 283.945 189.458 296.614C189.458 297.792 191.298 297.792 191.371 296.614Z" fill="#C4674E"/>
<path d="M202.776 266.93C207.117 268.182 211.531 269.729 215.504 271.939C218.815 273.78 221.905 276.506 222.494 280.483C223.009 284.24 221.317 288.07 218.594 290.574C215.578 293.373 211.458 294.625 207.484 294.92C202.04 295.288 196.742 293.815 191.592 292.342C190.488 292.047 189.973 293.815 191.077 294.109C200.053 296.761 210.942 299.044 218.962 292.636C222.2 290.058 224.333 286.007 224.333 281.809C224.333 277.463 221.758 274.001 218.374 271.571C216.314 270.097 214.033 269.066 211.752 268.109C208.956 266.93 206.086 265.899 203.217 265.089C202.113 264.794 201.598 266.636 202.776 266.93Z" fill="#C4674E"/>
<path d="M167.753 341.323C168.047 332.19 172.021 323.351 178.642 317.016C179.525 316.206 178.201 314.88 177.318 315.691C170.328 322.32 166.208 331.674 165.914 341.249C165.914 342.502 167.753 342.501 167.753 341.323Z" fill="#C4674E"/>
<path d="M176.141 319.079C179.378 320.036 182.689 321.141 185.632 322.835C188.06 324.235 190.415 326.223 190.856 329.17C191.298 331.969 189.973 334.915 187.913 336.756C185.632 338.819 182.542 339.703 179.599 339.923C175.552 340.144 171.653 339.113 167.753 337.935C166.65 337.64 166.135 339.408 167.238 339.703C174.154 341.691 182.468 343.459 188.575 338.524C191.077 336.535 192.696 333.442 192.696 330.201C192.696 326.886 190.783 324.161 188.134 322.246C184.749 319.815 180.482 318.416 176.509 317.311C175.479 316.943 175.037 318.71 176.141 319.079Z" fill="#C4674E"/>
<path d="M400.032 262.658L393.926 241.666L388.26 262.658L367.953 269.361L388.26 276.211L393.926 298.97L400.327 276.358L419.898 269.361L400.032 262.658Z" fill="#FFD62A"/>
<path d="M62.098 101.13L56.1384 80.58L50.5466 101.056L30.6811 107.686L50.5466 114.315L56.1384 136.632L62.3923 114.462L81.5956 107.686L62.098 101.13Z" fill="#FFD62A"/>
<path d="M439.616 208.668L435.937 195.999L432.479 208.668L420.266 212.645L432.479 216.77L435.937 230.544L439.763 216.918L451.609 212.645L439.616 208.668Z" fill="#FFD62A"/>
<path d="M18.9826 169.262L15.3774 156.888L11.9929 169.262L0 173.239L11.9929 177.217L15.3774 190.696L19.1298 177.29L30.6812 173.239L18.9826 169.262Z" fill="#FFD62A"/>
<path d="M251.336 10.2382L248.392 0L245.597 10.2382L235.737 13.4791L245.597 16.7936L248.392 27.9157L251.483 16.8673L261.048 13.4791L251.336 10.2382Z" fill="#FFD62A"/>
<path d="M59.0814 326.297L56.1384 316.059L53.3425 326.297L43.4833 329.611L53.3425 332.926L56.1384 343.974L59.2286 333L68.7935 329.611L59.0814 326.297Z" fill="#FFD62A"/>
</svg>
